# xmcd
# 
# Track frame offsets:
#     150
#     32667
#     50273
#     71544
#     94110
#     115395
#     152733
# 
# Disc length: 2501
# 
# Revision: 0
# Processed by: cddbd v1.5.2PL0 Copyright (c) Steve Scherf et al.
# Submitted via: BonkEnc v1.0.15
# 
DISCID=5409c307
DTITLE=Jim Rohn - Challenge To Succeed-CD6
DYEAR=1991
DGENRE=Speech
TTITLE0=Happiness is an art
TTITLE1=Personal development
TTITLE2=America is unique
TTITLE3=Work harder on yourself
TTITLE4=Setting goals
TTITLE5=Goal to become a millionaire
TTITLE6=Positive - Negative
EXTD=
EXTT0=
EXTT1=
EXTT2=
EXTT3=
EXTT4=
EXTT5=
EXTT6=
PLAYORDER=
